<?xml version="1.0" encoding="utf-8"?>
<!-- Generator: Adobe Illustrator 26.0.1, SVG Export Plug-In . SVG Version: 6.00 Build 0)  -->
<svg version="1.1" id="Layer_1" xmlns="http://www.w3.org/2000/svg" xmlns:xlink="http://www.w3.org/1999/xlink" x="0px" y="0px"
	 viewBox="0 0 48 48" style="enable-background:new 0 0 48 48;" xml:space="preserve">
<path style="fill:none;stroke:currentColor;stroke-width:2;stroke-linecap:round;stroke-linejoin:round;stroke-miterlimit:10;" d=" M25.2,26.2c-1.9-1.1-5.9-3.6-8.7-8.4C12.4,10.8,13.4,4,13.7,2c6.2,4.4,11.1,8,14.2,10.2c0.6,0.4,1.9,1.3,2.8,3 c1.1,2.1,1.2,4.2,1,5.6c0.2-0.6,0.9-2.7,3-4.1c0.6-0.4,2.2-1.4,4.2-1c2.1,0.4,3.7,2.4,4.2,4.9c-0.7-0.2-1.8-0.4-2.9,0 c-1.3,0.5-1.9,1.6-2.7,3.1c-0.7,1.4-1.1,3.6-2.9,5.6c-2,2.2-4.3,3.7-10,6c-2.2,0.9-6.9,2.4-10,4c-1.5,0.8-3.9,2.4-4.3,3.8 c-0.8,2.7,1.4,3.1,3,3.1c3,0,13-6.7,12.7-10.5c-0.1-1.5-2.2-2.1-4.4-3.3c-3.3-1.8-4.9-2.5-7.4-4.3c-2.8-2-6.8-5.5-9.5-16 c1.7-0.3,3.8-0.4,6.2,0c0.5,0.1,0.9,0.2,1.3,0.3"/>
</svg>
