<?xml version="1.0" encoding="utf-8"?>
<!-- Generator: Adobe Illustrator 26.0.1, SVG Export Plug-In . SVG Version: 6.00 Build 0)  -->
<svg version="1.1" id="Layer_1" xmlns="http://www.w3.org/2000/svg" xmlns:xlink="http://www.w3.org/1999/xlink" x="0px" y="0px"
	 viewBox="0 0 48 48" style="enable-background:new 0 0 48 48;" xml:space="preserve">
<path style="fill:none;stroke:currentColor;stroke-width:2;stroke-linecap:round;stroke-linejoin:round;stroke-miterlimit:10;" d=" M38.4,16.4C38.2,8.4,31.8,2,24,2S9.8,8.4,9.6,16.4h0v27.4l7.2-2.9l7.2,5l7.2-5l7.2,2.9L38.4,16.4L38.4,16.4z"/> <path d="M22.1,16.5c-0.2,2.2-2,3.8-4.2,3.8c-2.2,0-4-1.6-4.2-3.8c0-0.3,0-0.6,0.2-0.8c0.2-0.2,0.5-0.3,0.8-0.3h6.4 c0.3,0,0.5,0.1,0.7,0.3C22,16,22.1,16.2,22.1,16.5z"/> <path d="M33.6,16.5c-0.2,2.2-2,3.8-4.2,3.8c-2.2,0-4-1.6-4.2-3.8c0-0.3,0-0.6,0.2-0.8c0.2-0.2,0.5-0.3,0.7-0.3h6.4 c0.3,0,0.5,0.1,0.7,0.3C33.5,16,33.6,16.2,33.6,16.5z"/>
</svg>
